<svg xmlns="http://www.w3.org/2000/svg" viewBox="0 0 100 100" width="32" height="32">
  <defs>
    <linearGradient id="grad" x1="0%" y1="0%" x2="100%" y2="100%">
      <stop offset="0%" style="stop-color:#3b82f6;stop-opacity:1" />
      <stop offset="100%" style="stop-color:#8b5cf6;stop-opacity:1" />
    </linearGradient>
  </defs>
  
  <!-- Background circle -->
  <circle cx="50" cy="50" r="45" fill="url(#grad)" stroke="#1e40af" stroke-width="2"/>
  
  <!-- Infinity symbol -->
  <path d="M25 50 C25 35, 35 25, 50 25 C65 25, 75 35, 75 50 C75 65, 65 75, 50 75 C35 75, 25 65, 25 50 Z M75 50 C75 35, 65 25, 50 25 C35 25, 25 35, 25 50 C25 65, 35 75, 50 75 C65 75, 75 65, 75 50 Z" 
        fill="none" stroke="white" stroke-width="3" stroke-linecap="round"/>
  
  <!-- Letter I in center -->
  <text x="50" y="58" font-family="Arial, sans-serif" font-size="20" font-weight="bold" text-anchor="middle" fill="white">I</text>
</svg>

